<svg width="19" height="10" viewBox="0 0 19 10" fill="none" xmlns="http://www.w3.org/2000/svg">
<path fill-rule="evenodd" clip-rule="evenodd" d="M18.5785 0.156531C18.6884 0.267717 18.75 0.417725 18.75 0.574032C18.75 0.730339 18.6884 0.880346 18.5785 0.991531L10.1505 9.82053C10.1002 9.8769 10.0386 9.92201 9.96968 9.9529C9.90075 9.98378 9.82606 9.99975 9.75053 9.99975C9.67499 9.99975 9.60031 9.98378 9.53137 9.9529C9.46244 9.92201 9.40081 9.8769 9.35053 9.82053L0.922529 1.02053C0.813318 0.909076 0.75165 0.75957 0.750528 0.603531C0.751228 0.447408 0.81296 0.297749 0.922529 0.186531C0.972811 0.13016 1.03444 0.0850531 1.10337 0.0541679C1.17231 0.0232827 1.24699 0.00731672 1.32253 0.00731672C1.39807 0.00731673 1.47275 0.0232827 1.54169 0.0541679C1.61062 0.0850531 1.67225 0.13016 1.72253 0.186531L9.75153 8.53753L17.7805 0.154531C17.8897 0.0545911 18.0324 -0.000673816 18.1804 -0.00030335C18.3284 6.71158e-05 18.4709 0.0560457 18.5795 0.156531L18.5785 0.156531Z" fill="black"/>
</svg>
